<svg viewBox="0 0 512 512" xmlns="http://www.w3.org/2000/svg"><path d="m471.95 253.05c0 120.9-98.01 218.91-218.91 218.91s-218.91-98.01-218.91-218.91 98.01-218.91 218.91-218.91 218.91 98.01 218.91 218.91" fill="#cd1d31" fill-rule="evenodd"/><path d="m167.31 117.59c-19.72.593-32.629 21.04-29.531 39.688.115 69.67-.216 139.37.188 209.03 2.876 19.398 21.941 29.481 33.625 43.5 20.469 20.345 40.864 40.783 61.25 61.22 6.65.608 13.379.938 20.19.938 108.42 0 198.41-78.83 215.84-182.28l-172.09-172.09h-127.53c-.65-.023-1.301-.019-1.938 0m219.84 41.34 3.125.469zm12.313 9.625 3 .781zm41.469 44.16 3.125.469zm12.313 9.625 3 .781z" fill-opacity=".235"/><g fill-rule="evenodd"><path d="m256 1c-140.83 0-255 114.17-255 255s114.17 255 255 255 255-114.17 255-255-114.17-255-255-255m8.827 44.931c120.9 0 218.9 98 218.9 218.9s-98 218.9-218.9 218.9-218.93-98-218.93-218.9 98.03-218.9 218.93-218.9" fill-opacity=".067"/><g fill-opacity=".129"><path d="m256 4.43c-138.94 0-251.57 112.63-251.57 251.57s112.63 251.57 251.57 251.57 251.57-112.63 251.57-251.57-112.63-251.57-251.57-251.57m5.885 38.556c120.9 0 218.9 98 218.9 218.9s-98 218.9-218.9 218.9-218.93-98-218.93-218.9 98.03-218.9 218.93-218.9"/><path d="m256 8.36c-136.77 0-247.64 110.87-247.64 247.64s110.87 247.64 247.64 247.64 247.64-110.87 247.64-247.64-110.87-247.64-247.64-247.64m2.942 31.691c120.9 0 218.9 98 218.9 218.9s-98 218.9-218.9 218.9-218.93-98-218.93-218.9 98.03-218.9 218.93-218.9"/></g><path d="m253.04 7.86c-135.42 0-245.19 109.78-245.19 245.19 0 135.42 109.78 245.19 245.19 245.19 135.42 0 245.19-109.78 245.19-245.19 0-135.42-109.78-245.19-245.19-245.19zm0 26.297c120.9 0 218.9 98 218.9 218.9s-98 218.9-218.9 218.9-218.93-98-218.93-218.9 98.03-218.9 218.93-218.9z" fill="#fff" stroke="#000" stroke-opacity=".31" stroke-width="4.904"/></g><text x="729.64001" y="231.36"><tspan x="729.64001" y="231.36"/></text><text transform="scale(4.0128 .2492)" x="378.91" y="579.26001"/><text x="1310.91" y="151.36"><tspan x="1310.91" y="151.36"/></text><text transform="scale(4.0128 .2492)" x="523.76001" y="258.22"/><text x="239.33" y="-29.9"><tspan x="239.33" y="-29.9"/></text><text transform="scale(4.0128 .2492)" x="256.72" y="-469.13"/><text x="1337.38" y="-246.37"><tspan x="1337.38" y="-246.37"/></text><text transform="scale(4.0128 .2492)" x="530.35999" y="-1337.8"/><text x="1918.65" y="-326.37"><tspan x="1918.65" y="-326.37"/></text><text transform="scale(4.0128 .2492)" x="675.21002" y="-1658.83"/><text x="1529.53" y="-798.77002"><tspan x="1529.53" y="-798.77002"/></text><text transform="scale(4.0128 .2492)" x="578.23999" y="-3554.48"/><text x="2110.79" y="-878.78003"><tspan x="2110.79" y="-878.78003"/></text><text transform="scale(4.0128 .2492)" x="723.09003" y="-3875.52"/><text x="277.98999" y="535.94"><tspan x="277.98999" y="535.94"/></text><path d="m169.25 117.59c-17.422 0-31.469 14.02-31.469 31.438v213.94c0 17.422 14.05 31.438 31.469 31.438h173.5c17.422 0 31.469-14.02 31.469-31.438v-167.94l-77.44-77.44h-127.53m86.75 82.78c21.454.006 42.914 8.195 59.28 24.563 32.735 32.735 32.735 85.8 0 118.53-32.735 32.735-85.8 32.735-118.53 0-32.735-32.735-32.767-85.8-.031-118.53 16.368-16.368 37.827-24.568 59.28-24.563m-.469 23.406c-15.313.115-30.569 6.01-42.25 17.688-19.673 19.673-22.938 49.559-9.813 72.63l82.41-82.44c-9.371-5.332-19.867-7.954-30.344-7.875m52.969 30.5-82.41 82.44c23.07 13.155 52.937 9.906 72.63-9.781 19.688-19.688 22.937-49.588 9.781-72.66" fill="#fff"/><path d="m296.78 117.59c.342 17.512-.744 35.12.688 52.56 3.969 16 19.369 24.787 29.531 36.688 15.748 15.732 31.479 31.479 47.22 47.22v-59.03l-77.44-77.44" fill-opacity=".235"/><path d="m374.22 195.03-77.44-77.44v46c0 17.422 14.05 31.438 31.469 31.438h45.969" fill="#e9e9e9"/></svg>